<svg width="14" height="14" viewBox="0 0 14 14" fill="none" xmlns="http://www.w3.org/2000/svg">
<path d="M6.41671 13.0833C6.26393 12.9306 6.18393 12.7361 6.17671 12.5C6.16949 12.2639 6.24254 12.0694 6.39588 11.9167L10.4792 7.83333H1.16671C0.930599 7.83333 0.732544 7.75333 0.572544 7.59333C0.412544 7.43333 0.332821 7.23556 0.333377 7C0.333377 6.76389 0.413377 6.56583 0.573377 6.40583C0.733377 6.24583 0.931155 6.16611 1.16671 6.16667H10.4792L6.39588 2.08333C6.2431 1.93056 6.17004 1.73611 6.17671 1.5C6.18338 1.26389 6.26338 1.06944 6.41671 0.916666C6.56949 0.763889 6.76393 0.6875 7.00004 0.6875C7.23616 0.6875 7.4306 0.763889 7.58338 0.916666L13.0834 6.41667C13.1667 6.48611 13.2259 6.57306 13.2609 6.6775C13.2959 6.78194 13.3131 6.88944 13.3125 7C13.3125 7.11111 13.2953 7.21528 13.2609 7.3125C13.2264 7.40972 13.1673 7.5 13.0834 7.58333L7.58338 13.0833C7.4306 13.2361 7.23616 13.3125 7.00004 13.3125C6.76393 13.3125 6.56949 13.2361 6.41671 13.0833Z" fill="white"/>
</svg>
